<svg version="1.1"  xml:space="preserve"  xmlns="http://www.w3.org/2000/svg">
    <style>
     <![CDATA[
      	g { display: none }
      	g:target { display: inline-block } 
     ]]>
    </style>
    
<g width="132px" height="36px" viewBox="0 0 132 36" id="logo">
    <path d="M25 6C25 6 26 6 26 5C26 4 25 4 25 4L18 4L18 2C18 2 18 0 16 0L10 0C8 0 8 2 8 2L8 4L1 4C1 4 0 4 0 5C0 6 1 6 1 6L25 6ZM16 4L16 2L10 2L10 4L16 4ZM22 8L4 8C1 8 1 11 1 11L1 24.2676C0.402199 24.6134 0 25.2597 0 26C0 27.1046 0.895431 28 2 28C3.10457 28 4 27.1046 4 26C4 25.2597 3.5978 24.6134 3 24.2676L3 12C3 12 3 10 5 10L21 10C23 10 23 12 23 12L23 31C23 31 23 33.0288 21 33L3.73244 33C3.38663 32.4022 2.74028 32 2 32C0.895431 32 0 32.8954 0 34C0 35.1046 0.895431 36 2 36C2.74028 36 3.38663 35.5978 3.73244 35L22 35C25 35 25 32 25 32L25 11C25 11 25 8 22 8ZM9 14C9 14 9 13 10 13C11 13 11 14 11 14L11 29C11 29 11 30 10 30C9 30 9 29 9 29L9 14ZM16 13C15 13 15 14 15 14L15 29C15 29 15 30 16 30C17 30 17 29 17 29L17 14C17 14 17 13 16 13Z" id="Symbol" fill="#00D4FF" fill-rule="evenodd" stroke="none" />
    <path d="M2.18182 8.92634L2.23636 8.87141C3.72728 7.36995 5.52726 6.61923 7.63636 6.61923C9.74546 6.61923 11.5454 7.36995 13.0364 8.87141C14.5273 10.3729 15.2727 12.1856 15.2727 14.3096C15.2727 16.4336 14.5273 18.2464 13.0364 19.7478C11.5454 21.2493 9.74546 22 7.63636 22C5.52726 22 3.72728 21.2493 2.23636 19.7478C0.745447 18.2464 0 16.4336 0 14.3096L0 1.09863C0 0.796503 0.106817 0.53787 0.320455 0.322722C0.534092 0.107573 0.790908 0 1.09091 0C1.39091 0 1.64773 0.107573 1.86136 0.322722C2.075 0.53787 2.18182 0.796503 2.18182 1.09863L2.18182 8.92634ZM20.5977 4.29151C20.8659 4.02143 21 3.69871 21 3.32335C21 2.94798 20.8659 2.62526 20.5977 2.35518C20.3295 2.0851 20.0091 1.95006 19.6364 1.95006C19.2636 1.95006 18.9432 2.0851 18.675 2.35518C18.4068 2.62526 18.2727 2.94798 18.2727 3.32335C18.2727 3.69871 18.4068 4.02143 18.675 4.29151C18.9432 4.56159 19.2636 4.69663 19.6364 4.69663C20.0091 4.69663 20.3295 4.56159 20.5977 4.29151ZM24.3205 6.94195C24.1068 7.1571 24 7.41573 24 7.71785L24 20.9014C24 21.2035 24.1068 21.4621 24.3205 21.6773C24.5341 21.8924 24.7909 22 25.0909 22C25.3909 22 25.6477 21.8924 25.8614 21.6773C26.075 21.4621 26.1818 21.2035 26.1818 20.9014L26.1818 13.7603C26.1818 12.3962 26.6614 11.2312 27.6205 10.2653C28.5795 9.29941 29.7364 8.81648 31.0909 8.81648C32.4455 8.81648 33.6023 9.29941 34.5614 10.2653C35.5205 11.2312 36 12.3962 36 13.7603L36 20.9014C36 21.2035 36.1068 21.4621 36.3205 21.6773C36.5341 21.8924 36.7909 22 37.0909 22C37.3909 22 37.6477 21.8924 37.8614 21.6773C38.075 21.4621 38.1818 21.2035 38.1818 20.9014L38.1818 13.7603C38.1818 11.7919 37.4886 10.1097 36.1023 8.71348C34.7159 7.3173 33.0455 6.61923 31.0909 6.61923C29.1818 6.61923 27.5455 7.28297 26.1818 8.61049L26.1818 7.71785C26.1818 7.41573 26.075 7.1571 25.8614 6.94195C25.6477 6.7268 25.3909 6.61923 25.0909 6.61923C24.7909 6.61923 24.5341 6.7268 24.3205 6.94195ZM77.4546 19.6929C75.9273 21.231 74.1091 22 72 22C69.8909 22 68.0909 21.2493 66.6 19.7478C65.1091 18.2464 64.3636 16.4336 64.3636 14.3096C64.3636 12.1856 65.1091 10.3729 66.6 8.87141C68.0909 7.36995 69.8909 6.61923 72 6.61923C74.1091 6.61923 75.9091 7.36995 77.4 8.87141C78.8909 10.3729 79.6364 12.1856 79.6364 14.3096L79.6364 20.9014C79.6364 21.2035 79.5295 21.4621 79.3159 21.6773C79.1023 21.8924 78.8455 22 78.5455 22C78.2455 22 77.9886 21.8924 77.775 21.6773C77.5614 21.4621 77.4546 21.2035 77.4546 20.9014L77.4546 19.6929ZM18.5455 7.71785C18.5455 7.41573 18.6523 7.1571 18.8659 6.94195C19.0795 6.7268 19.3364 6.61923 19.6364 6.61923C19.9364 6.61923 20.1932 6.7268 20.4068 6.94195C20.6205 7.1571 20.7273 7.41573 20.7273 7.71785L20.7273 20.9014C20.7273 21.2035 20.6205 21.4621 20.4068 21.6773C20.1932 21.8924 19.9364 22 19.6364 22C19.3364 22 19.0795 21.8924 18.8659 21.6773C18.6523 21.4621 18.5455 21.2035 18.5455 20.9014L18.5455 7.71785ZM42.5454 20.9014C42.5454 21.2035 42.4386 21.4621 42.225 21.6773C42.0114 21.8924 41.7545 22 41.4545 22C41.1545 22 40.8977 21.8924 40.6841 21.6773C40.4704 21.4621 40.3636 21.2035 40.3636 20.9014L40.3636 7.71785C40.3636 7.41573 40.4704 7.1571 40.6841 6.94195C40.8977 6.7268 41.1545 6.61923 41.4545 6.61923C41.7545 6.61923 42.0114 6.7268 42.225 6.94195C42.4386 7.1571 42.5454 7.41573 42.5454 7.71785L42.5454 8.00624C43.6273 7.08156 44.9 6.61923 46.3636 6.61923C48.0182 6.61923 49.4318 7.20973 50.6045 8.39076C50.85 8.63795 51.0727 8.89888 51.2727 9.17353C51.4727 8.89888 51.6954 8.63795 51.9409 8.39076C53.1136 7.20973 54.5273 6.61923 56.1818 6.61923C57.8364 6.61923 59.25 7.20973 60.4227 8.39076C61.5955 9.57179 62.1818 10.9954 62.1818 12.6617L62.1818 20.9014C62.1818 21.2035 62.075 21.4621 61.8614 21.6773C61.6477 21.8924 61.3909 22 61.0909 22C60.7909 22 60.5341 21.8924 60.3204 21.6773C60.1068 21.4621 60 21.2035 60 20.9014L60 12.6617C60 11.5997 59.6273 10.6933 58.8818 9.94257C58.1364 9.19184 57.2364 8.81648 56.1818 8.81648C55.1273 8.81648 54.2273 9.19184 53.4818 9.94257C52.7364 10.6933 52.3636 11.5997 52.3636 12.6617L52.3636 20.9014C52.3636 21.2035 52.2568 21.4621 52.0432 21.6773C51.8295 21.8924 51.5727 22 51.2727 22C50.9727 22 50.7159 21.8924 50.5023 21.6773C50.2886 21.4621 50.1818 21.2035 50.1818 20.9014L50.1818 12.6617C50.1818 11.5997 49.8091 10.6933 49.0636 9.94257C48.3182 9.19184 47.4182 8.81648 46.3636 8.81648C45.3091 8.81648 44.4091 9.19184 43.6636 9.94257C42.9182 10.6933 42.5454 11.5997 42.5454 12.6617L42.5454 20.9014ZM82.1386 6.94195C81.925 7.1571 81.8182 7.41573 81.8182 7.71785L81.8182 20.9014C81.8182 21.2035 81.925 21.4621 82.1386 21.6773C82.3523 21.8924 82.6091 22 82.9091 22C83.2091 22 83.4659 21.8924 83.6795 21.6773C83.8932 21.4621 84 21.2035 84 20.9014L84 13.7603C84 12.3962 84.4795 11.2312 85.4386 10.2653C86.3977 9.29941 87.5545 8.81648 88.9091 8.81648C90.2636 8.81648 91.4204 9.29941 92.3795 10.2653C93.3386 11.2312 93.8182 12.3962 93.8182 13.7603L93.8182 20.9014C93.8182 21.2035 93.925 21.4621 94.1386 21.6773C94.3523 21.8924 94.6091 22 94.9091 22C95.2091 22 95.4659 21.8924 95.6795 21.6773C95.8932 21.4621 96 21.2035 96 20.9014L96 13.7603C96 11.7919 95.3068 10.1097 93.9204 8.71348C92.5341 7.31731 90.8636 6.61923 88.9091 6.61923C87 6.61923 85.3636 7.28297 84 8.61049L84 7.71785C84 7.41573 83.8932 7.1571 83.6795 6.94195C83.4659 6.7268 83.2091 6.61923 82.9091 6.61923C82.6091 6.61923 82.3523 6.7268 82.1386 6.94195ZM11.4955 18.196C10.4318 19.2672 9.14546 19.8027 7.63636 19.8027C6.12726 19.8027 4.84091 19.2672 3.77727 18.196C2.71363 17.1248 2.18182 15.8294 2.18182 14.3096C2.18182 12.7898 2.71363 11.4944 3.77727 10.4232C4.84091 9.35205 6.12726 8.81648 7.63636 8.81648C9.14546 8.81648 10.4318 9.35205 11.4955 10.4232C12.5591 11.4944 13.0909 12.7898 13.0909 14.3096C13.0909 15.8294 12.5591 17.1248 11.4955 18.196ZM68.1409 10.4232C69.2046 9.35205 70.4909 8.81648 72 8.81648C73.5091 8.81648 74.7954 9.35205 75.8591 10.4232C76.9227 11.4944 77.4545 12.7898 77.4545 14.3096C77.4545 15.8294 76.9227 17.1248 75.8591 18.196C74.7954 19.2672 73.5091 19.8027 72 19.8027C70.4909 19.8027 69.2046 19.2672 68.1409 18.196C67.0773 17.1248 66.5455 15.8294 66.5455 14.3096C66.5455 12.7898 67.0773 11.4944 68.1409 10.4232Z" transform="translate(36 7)" id="Binman" fill="#FFFFFF" fill-rule="evenodd" stroke="none" />
</g>

<g width="36px" height="36px" transform="translate(11, 10)" viewBox="0 0 14 14" id="phone">
  <path d="M13.9933 11.0487C14.023 11.2761 13.9537 11.4739 13.7858 11.6419L11.8147 13.5995C11.7257 13.6983 11.6097 13.7825 11.4664 13.8516C11.3231 13.9208 11.1824 13.9653 11.0441 13.9851C11.0342 13.9851 11.0045 13.9876 10.9551 13.9926C10.9057 13.9975 10.8415 14 10.7625 14C10.5747 14 10.2708 13.9679 9.85091 13.9036C9.43098 13.8393 8.91722 13.6811 8.30961 13.429C7.70186 13.1769 7.01272 12.7987 6.24206 12.2945C5.4714 11.7903 4.65129 11.0982 3.7818 10.2182C3.09017 9.536 2.51709 8.88346 2.06259 8.2606C1.60808 7.6377 1.2425 7.06178 0.965848 6.53283C0.689168 6.00387 0.481677 5.52435 0.343349 5.09427C0.205021 4.66419 0.111156 4.29342 0.0617534 3.98198C0.0123507 3.67054 -0.00741041 3.42584 0.00247014 3.24788C0.0123507 3.06991 0.017291 2.97104 0.017291 2.95127C0.0370521 2.81285 0.0815145 2.67196 0.150678 2.5286C0.219842 2.38524 0.303827 2.26906 0.402632 2.18008L2.3738 0.207627C2.51213 0.0692089 2.67022 0 2.84807 0C2.97652 0 3.09014 0.0370762 3.18895 0.111229C3.28775 0.185381 3.37174 0.276836 3.4409 0.385593L5.02673 3.39618C5.11565 3.55437 5.14036 3.72739 5.10083 3.91525C5.06131 4.1031 4.97733 4.26129 4.84888 4.38982L4.12266 5.11652C4.1029 5.13629 4.08561 5.16842 4.07079 5.21291C4.05597 5.25741 4.04855 5.29448 4.04855 5.32414C4.08808 5.53177 4.177 5.76906 4.31533 6.03601C4.4339 6.27329 4.61669 6.56249 4.8637 6.90359C5.11071 7.24469 5.46147 7.63767 5.91598 8.08259C6.3606 8.53744 6.75583 8.89085 7.10164 9.14302C7.44739 9.39504 7.73649 9.58049 7.96869 9.69914C8.20088 9.81778 8.37873 9.88946 8.50221 9.91411L8.68742 9.95121C8.70719 9.95121 8.73937 9.94377 8.78378 9.92896C8.82825 9.91411 8.86036 9.89683 8.88014 9.87703L9.72491 9.01686C9.90285 8.85869 10.1102 8.7796 10.3474 8.7796C10.5154 8.7796 10.6487 8.80923 10.7475 8.86858L10.7623 8.86858L13.6227 10.5593C13.8303 10.6879 13.9538 10.851 13.9933 11.0487Z" stroke="none" />
</g>  

<g width="36px" height="36px" transform="translate(11, 12)" viewBox="0 0 14 12" id="mail">
  <path d="M14 3.00256L6.99999 7L0 3.00256L0 2C0 2 0 0 2 0L12 0C14 0 14 2 14 2L14 3.00256ZM0 4L7 8L14 4L14 10C14 10 14 12 12 12L2 12C0 12 0 10 0 10L0 4Z" stroke="none" />
</g>

<g width="18px" height="16px" viewBox="0 0 18 16" id="home">
  <path d="M18 9L15 5.76965L15 2L13 2L13 4.09619L9 0L0 9L5.68434e-14 10L2 10L2 16L7 16L7 11L11 11L11 16L16 16L16 10L18 10L18 9Z" stroke="none" />
</g>

<g width="18px" height="16px" viewBox="0 0 18 16" id="clients">
  <path d="M11.4139 2.74619C12.2462 3.29738 12.8298 4.23009 12.9361 5.31277C13.2755 5.48028 13.6522 5.57662 14.0516 5.57662C15.5097 5.57662 16.6915 4.32833 16.6915 2.78843C16.6915 1.24829 15.5097 0 14.0516 0C12.6074 0.000474545 11.436 1.22646 11.4139 2.74619ZM4.01723 5.5771C4.53367 5.5771 5.01416 5.41789 5.4212 5.14668C5.55059 4.25525 6.003 3.47629 6.64928 2.94574C6.65197 2.89354 6.65669 2.84182 6.65669 2.78914C6.65669 1.24901 5.47466 0.000717163 4.01723 0.000717163C2.5589 0.000717163 1.37732 1.24901 1.37732 2.78914C1.37732 4.32857 2.5589 5.5771 4.01723 5.5771ZM11.7727 5.66702C11.7727 7.20692 10.5909 8.45545 9.13279 8.45545C7.67491 8.45545 6.49243 7.20716 6.49243 5.66726C6.49243 4.12736 7.67491 2.87883 9.13279 2.87883C10.5907 2.87883 11.7727 4.12712 11.7727 5.66702ZM5.48896 6.5C5.51559 7.40007 6.5 8.5 6.5 8.5C6.5 8.5 4 9.33691 4 12.2202L4 13.0941C1.61475 13.7778 0 12 0 12L0 9.33691C0 7.3685 1.13733 6.5 3.00112 6.5L5.48896 6.5ZM12.7768 6.5L14.9996 6.5C16.8631 6.5 18 7.3685 18 9.33691L18 12C18 12 17.1947 13.027 15 13.1119L15 12.2202C15 9.33691 11.5 8.5 11.5 8.5C11.5 8.5 12.7528 7.43936 12.7768 6.5ZM10.2526 9.33691L8.0125 9.33691C6.14871 9.33691 5 10.2473 5 12.216L5 15.1548C5 15.1548 6.93965 16 9.42389 16C11.9081 16 14 14.7837 14 14.7837L14 12.216C14.0007 10.2473 12.1164 9.33691 10.2526 9.33691Z" stroke="none" />
</g>

<g width="18px" height="16px" viewBox="0 0 18 16" id="reports">
  <path d="M17.2723 0L17.3348 0C17.5534 0 17.7251 0.0647118 17.8383 0.190091C17.9593 0.319515 18.0101 0.501517 17.9984 0.736097L17.9476 1.85642C17.9125 2.60465 17.8774 3.34884 17.8461 4.09302C17.8383 4.26694 17.8071 4.48938 17.6392 4.6633C17.5924 4.71183 17.5377 4.75227 17.4753 4.78868C17.3816 4.84125 17.2918 4.86552 17.202 4.86552C16.9874 4.86552 16.8468 4.71992 16.7453 4.61476L15.8905 3.73306L9.33328 10.5632C9.14982 10.7492 8.9117 10.8544 8.65407 10.8544C8.39644 10.8544 8.15442 10.7492 7.97486 10.5632L4.96526 7.44489L1.81513 10.7088C1.63557 10.8948 1.39745 11 1.13982 11C0.882192 11 0.640175 10.8948 0.460614 10.7088L0.281052 10.5227C-0.0936841 10.1345 -0.0936841 9.50758 0.281052 9.11931L4.28995 4.96967C4.46951 4.78362 4.70763 4.67846 4.96526 4.67846C5.22289 4.67846 5.46491 4.78362 5.64447 4.96967L8.65407 8.08797L14.3525 2.14358C14.1573 1.9454 13.9621 1.74318 13.7709 1.54095L13.4937 1.24975C13.3844 1.1365 13.1541 0.897877 13.3181 0.529828C13.3493 0.457027 13.3883 0.39636 13.4391 0.343782C13.5991 0.177958 13.8021 0.169869 13.9504 0.16178C15.059 0.109201 16.1637 0.0525784 17.2723 0ZM13 7.78992L13 15.6856C13 15.8571 13.1489 16 13.3359 16L15.6641 16C15.8473 16 16 15.8607 16 15.6856L16 4.6543L13 7.78992ZM5 15.6447C5 15.8385 5.14886 16 5.33588 16L7.66412 16C7.84733 16 8 15.8425 8 15.6447L8 11.5546L5 8.48596L5 15.6447ZM9.33588 16C9.14886 16 9 15.8642 9 15.7012L9 11.8194C9.11832 11.7515 9.23282 11.7029 9.33588 11.6112L12 8.80981L12 15.7012C12 15.8676 11.8473 16 11.6641 16L9.33588 16ZM1.33588 16C1.14885 16 1 15.8374 1 15.6423L1 12.0193C1.63202 12.0193 1.95038 11.6295 2.30916 11.2515L4 9.45068L4 15.6423C4 15.8415 3.84733 16 3.66412 16L1.33588 16Z" stroke="none" />
</g>

<g width="36px" height="36px" transform="translate(11, 10)" viewBox="0 0 12 16" id="favorite">
  <path d="M12 16L12 2C12 2 12 0 10 1.13687e-13L2 0C0 0 0 2 0 2L0 16L6 12L12 16Z" stroke="none" />
</g>

<g width="14px" height="18px" transform="translate(10, 8)" viewBox="0 0 14 18" id="resume">
  <path d="M14 16C14 16 14 18 12 18L2 18C0 18 0 16 0 16L0 5L5 5L5 0L12 0C14 0 14 2 14 2L14 16ZM0 4L4 0L4 4L0 4ZM11 7L11 8L3 8L3 7L11 7ZM3 10L3 11L11 11L11 10L3 10ZM3 14L3 13L7 13L7 14L3 14Z" fill="#475364" fill-rule="evenodd" stroke="none" />
</g>

<g width="16px" height="16px" transform="translate(9, 9)" viewBox="0 0 16 16" id="archive">
  <path d="M15 0L1 0C0 0 0 1 0 1L0 3L16 3L16 1C16 1 16 0 15 0ZM15 4L1 4L1 14C1 14 1 16 3 16L13 16C14.6785 16 15 14 15 14L15 4ZM7 6L9 6L9 10L11 10L8 14L5 10L7 10L7 6Z" stroke="none" />
</g>

<g width="15px" height="15px" viewBox="0 0 15 15" id="starfill">
  <path d="M11.4458 9.35884C11.3265 9.48028 11.2742 9.65657 11.3041 9.82894L12.1581 14.9726L7.74988 12.5555C7.60443 12.4732 7.42914 12.4771 7.27996 12.5555L2.88662 15L3.71084 9.84852C3.73695 9.67616 3.68473 9.50379 3.56539 9.38235L0 5.74693L4.91919 4.97911C5.08329 4.95168 5.22501 4.84591 5.29587 4.68921L7.48135 0L9.69667 4.67746C9.77126 4.83416 9.91298 4.93993 10.0771 4.96735L15 5.70384L11.4458 9.35884Z" stroke="none" />
</g>

<g width="15px" height="15px" viewBox="0 0 15 15" id="star">
	<path d="m10.591 9.1426c-0.09338 0.094713-0.1343 0.2322-0.1109 0.36664l0.6684 4.0116-3.4502-1.8851c-0.11384-0.06417-0.25103-0.06115-0.36779 0l-3.4385 1.9065 0.64509-4.0177c0.020436-0.13443-0.020436-0.26886-0.11384-0.36357l-2.7905-2.8353 3.8501-0.59884c0.12844-0.021393 0.23936-0.10389 0.29482-0.2261l1.7105-3.6572 1.7339 3.648c0.058381 0.12221 0.1693 0.2047 0.29775 0.22609l3.853 0.5744z" fill="none"  stroke-linecap="square" stroke-width="1.75" />
</g>

<g width="40px" height="40px" transform="translate(12, 12)" viewBox="0 0 16 14" id="no-photo">
  <path d="M14 2L12 2C12 2 11 0 10 0L6 0C4.99414 0 4 2 4 2L2 2C0 2 0 4 0 4L0 12C0 12 -5.63993e-14 14 2 14L14 14C16 14 16 12 16 12L16 4C16 4 16 2 14 2Z" fill="#A3A9B1" stroke="none" />
  <path d="M6.82586 6.82577C6.04313 7.60853 5.10126 8 3.99998 8C2.89871 8 1.9569 7.60853 1.17411 6.82577C0.391317 6.04314 0 5.10105 0 4.00003C0 2.89867 0.391442 1.95689 1.17411 1.1741C1.9568 0.391316 2.89874 0 3.99998 0C5.10123 0 6.04313 0.391409 6.82586 1.1741C7.60862 1.9568 8 2.89867 8 4.00003C8 5.10105 7.60865 6.04305 6.82586 6.82577Z" transform="translate(4 4)" fill="#E8EFF1" stroke="none" />
  <path d="M2 0C1.44907 0 0.978012 0.195606 0.586807 0.586867C0.195602 0.978079 0 1.44907 0 2.00013C0 2.55098 0.195602 3.02204 0.586807 3.41325C0.978012 3.80439 1.44904 4 2 4C2.55086 4 3.02196 3.80439 3.41317 3.41325C3.80437 3.02204 4 2.551 4 2.00013C4 1.44909 3.80437 0.978103 3.41317 0.586867C3.02199 0.19563 2.55086 0 2 0Z" transform="translate(6 6)" fill="#A3A9B1" stroke="none" />
</g>

<g width="36px" height="36px" transform="translate(12, 11)" viewBox="0 0 12 12" id="plus">
  <path d="M7 5L7 1C7 1 7 0 6 0C5 1.22465e-16 5 1 5 1L5 5L1 5C1 5 0 5 0 6C6.12323e-17 7 1 7 1 7L5 7L5 11C5 11 5 12 6 12C7 12 7 11 7 11L7 7L11 7C11 7 12 7 12 6C12 5 11 5 11 5L7 5Z" stroke="none" />
</g>

  
</svg>
